<svg width="57" height="24" viewBox="0 0 57 24" fill="none" xmlns="http://www.w3.org/2000/svg">
<path d="M5.272 23.32C3.58667 23.32 2.296 22.84 1.4 21.88C0.525333 20.92 0.0880001 19.5653 0.0880001 17.816V5.784C0.0880001 4.03467 0.525333 2.68 1.4 1.72C2.296 0.759999 3.58667 0.279999 5.272 0.279999C6.95733 0.279999 8.23733 0.759999 9.112 1.72C10.008 2.68 10.456 4.03467 10.456 5.784V8.152H7.128V5.56C7.128 4.17333 6.54133 3.48 5.368 3.48C4.19467 3.48 3.608 4.17333 3.608 5.56V18.072C3.608 19.4373 4.19467 20.12 5.368 20.12C6.54133 20.12 7.128 19.4373 7.128 18.072V14.648H10.456V17.816C10.456 19.5653 10.008 20.92 9.112 21.88C8.23733 22.84 6.95733 23.32 5.272 23.32ZM12.562 0.599998H22.162V3.8H16.082V9.72H20.914V12.92H16.082V19.8H22.162V23H12.562V0.599998ZM24.187 0.599998H33.787V3.8H27.707V9.72H32.539V12.92H27.707V19.8H33.787V23H24.187V0.599998ZM35.812 0.599998H45.124V3.8H39.332V10.04H43.876V13.24H39.332V23H35.812V0.599998ZM48.5008 0.599998H53.2688L56.9168 23H53.3968L52.7568 18.552V18.616H48.7568L48.1168 23H44.8528L48.5008 0.599998ZM52.3408 15.576L50.7728 4.504H50.7088L49.1727 15.576H52.3408Z" fill="black"/>
</svg>
