<svg width="24" height="24" viewBox="0 0 24 24" fill="none" xmlns="http://www.w3.org/2000/svg">
<path fill-rule="evenodd" clip-rule="evenodd" d="M12 1.73077C6.32846 1.73077 1.73077 6.32846 1.73077 12C1.73077 17.6715 6.32846 22.2692 12 22.2692C17.6715 22.2692 22.2692 17.6715 22.2692 12C22.2692 6.32846 17.6715 1.73077 12 1.73077ZM0.730766 12C0.730766 5.77617 5.77617 0.730766 12 0.730766C18.2238 0.730766 23.2692 5.77617 23.2692 12C23.2692 18.2238 18.2238 23.2692 12 23.2692C5.77617 23.2692 0.730766 18.2238 0.730766 12Z" fill="white"/>
<path fill-rule="evenodd" clip-rule="evenodd" d="M12 8.71622C8.25744 8.71622 5.2235 11.7502 5.2235 15.4927C5.2235 19.2353 8.25744 22.2692 12 22.2692C15.7426 22.2692 18.7765 19.2353 18.7765 15.4927C18.7765 11.7502 15.7426 8.71622 12 8.71622ZM4.2235 15.4927C4.2235 11.1979 7.70516 7.71622 12 7.71622C16.2948 7.71622 19.7765 11.1979 19.7765 15.4927C19.7765 19.7876 16.2948 23.2692 12 23.2692C7.70516 23.2692 4.2235 19.7876 4.2235 15.4927Z" fill="white"/>
<path fill-rule="evenodd" clip-rule="evenodd" d="M12 14.5374C9.86492 14.5374 8.13409 16.2682 8.13409 18.4033C8.13409 20.5384 9.86492 22.2692 12 22.2692C14.1351 22.2692 15.8659 20.5384 15.8659 18.4033C15.8659 16.2682 14.1351 14.5374 12 14.5374ZM7.13409 18.4033C7.13409 15.716 9.31263 13.5374 12 13.5374C14.6874 13.5374 16.8659 15.716 16.8659 18.4033C16.8659 21.0907 14.6874 23.2692 12 23.2692C9.31263 23.2692 7.13409 21.0907 7.13409 18.4033Z" fill="white"/>
</svg>
