<svg width="24" height="24" viewBox="0 0 24 24" fill="none" xmlns="http://www.w3.org/2000/svg">
<g clip-path="url(#clip0_308_4128)">
<path d="M5.43134 23.5V7.98194H0.273459V23.5H5.43134ZM2.85307 5.86194C4.65171 5.86194 5.77128 4.67033 5.77128 3.18122C5.73777 1.65853 4.65178 0.5 2.8872 0.5C1.12289 0.5 -0.0308533 1.65855 -0.0308533 3.18122C-0.0308533 4.6704 1.08844 5.86194 2.8194 5.86194H2.85307ZM8.28621 23.5H13.4441V14.834C13.4441 14.3702 13.4776 13.9068 13.6138 13.5753C13.9867 12.6487 14.8354 11.6889 16.2602 11.6889C18.1266 11.6889 18.8733 13.112 18.8733 15.1981V23.4999H24.0308V14.602C24.0308 9.83544 21.4862 7.61762 18.0926 7.61762C15.3102 7.61762 14.0885 9.17292 13.4098 10.2322H13.4442V7.98162H8.28633C8.35402 9.43775 8.28621 23.5 8.28621 23.5Z" fill="#1B2024"/>
</g>
<defs>
<clipPath id="clip0_308_4128">
<rect width="24" height="24" fill="white"/>
</clipPath>
</defs>
</svg>
