<svg width="24" height="24" viewBox="0 0 24 24" fill="none" xmlns="http://www.w3.org/2000/svg">
<g clip-path="url(#clip0_308_4104)">
<path d="M11.9972 8.16514C9.88561 8.16514 8.16235 9.88839 8.16235 12C8.16235 14.1117 9.88561 15.8349 11.9972 15.8349C14.1089 15.8349 15.8321 14.1117 15.8321 12C15.8321 9.88839 14.1089 8.16514 11.9972 8.16514ZM23.4991 12C23.4991 10.412 23.5134 8.83833 23.4243 7.25316C23.3351 5.41195 22.915 3.77788 21.5687 2.43149C20.2194 1.08223 18.5882 0.665083 16.747 0.575899C15.1589 0.486715 13.5853 0.5011 12.0001 0.5011C10.4121 0.5011 8.83842 0.486715 7.25325 0.575899C5.41204 0.665083 3.77797 1.08511 2.43158 2.43149C1.08232 3.78076 0.665174 5.41195 0.575991 7.25316C0.486807 8.84121 0.501191 10.4149 0.501191 12C0.501191 13.5852 0.486807 15.1617 0.575991 16.7469C0.665174 18.5881 1.0852 20.2222 2.43158 21.5686C3.78085 22.9178 5.41204 23.335 7.25325 23.4242C8.8413 23.5133 10.415 23.499 12.0001 23.499C13.5882 23.499 15.1618 23.5133 16.747 23.4242C18.5882 23.335 20.2223 22.915 21.5687 21.5686C22.9179 20.2193 23.3351 18.5881 23.4243 16.7469C23.5163 15.1617 23.4991 13.5881 23.4991 12ZM11.9972 17.9005C8.73197 17.9005 6.09674 15.2653 6.09674 12C6.09674 8.73476 8.73197 6.09953 11.9972 6.09953C15.2625 6.09953 17.8977 8.73476 17.8977 12C17.8977 15.2653 15.2625 17.9005 11.9972 17.9005ZM18.1394 7.2359C17.377 7.2359 16.7614 6.62025 16.7614 5.85787C16.7614 5.09549 17.377 4.47984 18.1394 4.47984C18.9018 4.47984 19.5174 5.09549 19.5174 5.85787C19.5177 6.0389 19.4822 6.21819 19.413 6.38549C19.3438 6.55278 19.2423 6.70478 19.1143 6.83279C18.9863 6.9608 18.8343 7.0623 18.667 7.13147C18.4997 7.20064 18.3204 7.23613 18.1394 7.2359Z" fill="#1B2024"/>
</g>
<defs>
<clipPath id="clip0_308_4104">
<rect width="24" height="24" fill="white"/>
</clipPath>
</defs>
</svg>
