<svg width="24" height="24" viewBox="0 0 24 24" fill="none" xmlns="http://www.w3.org/2000/svg">
<path d="M23.5 4.8691C22.6542 5.24389 21.7456 5.49713 20.7904 5.61159C21.776 5.02185 22.5133 4.09366 22.8649 3.00021C21.9389 3.55023 20.9254 3.93739 19.8686 4.14484C19.1579 3.38601 18.2165 2.88304 17.1907 2.71403C16.1648 2.54502 15.1119 2.71942 14.1953 3.21015C13.2787 3.70088 12.5498 4.4805 12.1217 5.42795C11.6936 6.3754 11.5903 7.43769 11.8278 8.44987C9.9515 8.35567 8.11598 7.86799 6.44036 7.01848C4.76474 6.16898 3.28646 4.97664 2.10147 3.51884C1.69629 4.21778 1.46331 5.02814 1.46331 5.89117C1.46286 6.66809 1.65419 7.43312 2.02031 8.11837C2.38644 8.80362 2.91604 9.3879 3.56214 9.81938C2.81284 9.79554 2.08007 9.59307 1.42482 9.22883V9.28961C1.42475 10.3793 1.80167 11.4354 2.49164 12.2788C3.18161 13.1222 4.14213 13.7009 5.21021 13.9168C4.51511 14.1049 3.78635 14.1326 3.07897 13.9978C3.38032 14.9354 3.96732 15.7553 4.75779 16.3427C5.54827 16.9301 6.50265 17.2556 7.48732 17.2737C5.81578 18.5859 3.75145 19.2976 1.6264 19.2945C1.24997 19.2946 0.873855 19.2726 0.5 19.2287C2.65705 20.6156 5.16801 21.3516 7.73245 21.3488C16.4134 21.3488 21.1591 14.1588 21.1591 7.92314C21.1591 7.72055 21.154 7.51594 21.1449 7.31335C22.068 6.64579 22.8648 5.81914 23.498 4.87214L23.5 4.8691Z" fill="#1B2024"/>
</svg>
