<svg width="24" height="24" viewBox="0 0 24 24" fill="none" xmlns="http://www.w3.org/2000/svg">
<path fill-rule="evenodd" clip-rule="evenodd" d="M13.3459 5.34849C13.5408 5.15281 13.8573 5.15215 14.053 5.347L20.1028 11.3714C20.197 11.4652 20.25 11.5927 20.25 11.7257C20.25 11.8587 20.197 11.9862 20.1028 12.08L14.053 18.1046C13.8573 18.2994 13.5408 18.2988 13.3459 18.1031C13.1511 17.9074 13.1517 17.5909 13.3474 17.396L18.5393 12.2257H4.75C4.47386 12.2257 4.25 12.0018 4.25 11.7257C4.25 11.4496 4.47386 11.2257 4.75 11.2257H18.5393L13.3474 6.05559C13.1517 5.86074 13.1511 5.54416 13.3459 5.34849Z" fill="white"/>
</svg>
