<svg width="24" height="24" viewBox="0 0 24 24" fill="none" xmlns="http://www.w3.org/2000/svg">
<path fill-rule="evenodd" clip-rule="evenodd" d="M8.51548 6.44144C8.5149 6.1653 8.73829 5.94097 9.01443 5.94039L17.5522 5.92243C17.6852 5.92215 17.8128 5.97485 17.9068 6.06887C18.0008 6.1629 18.0535 6.2905 18.0532 6.42347L18.0354 14.9614C18.0348 15.2375 17.8105 15.4609 17.5344 15.4603C17.2582 15.4597 17.0348 15.2354 17.0354 14.9593L17.0507 7.63206L7.30018 17.3826C7.10492 17.5778 6.78834 17.5778 6.59308 17.3826C6.39781 17.1873 6.39781 16.8707 6.59308 16.6755L16.3436 6.92497L9.01654 6.94039C8.74039 6.94097 8.51607 6.71758 8.51548 6.44144Z" fill="white"/>
</svg>
