<svg width="24" height="24" viewBox="0 0 24 24" fill="none" xmlns="http://www.w3.org/2000/svg">
<path fill-rule="evenodd" clip-rule="evenodd" d="M19.5 12C19.5 12.2761 19.2761 12.5 19 12.5L4.99996 12.5C4.72382 12.5 4.49996 12.2761 4.49996 12C4.49996 11.7238 4.72382 11.5 4.99996 11.5L19 11.5C19.2761 11.5 19.5 11.7238 19.5 12Z" fill="#1B2024"/>
<path fill-rule="evenodd" clip-rule="evenodd" d="M12 4.5C12.2762 4.5 12.5 4.72386 12.5 5L12.5 19C12.5 19.2761 12.2762 19.5 12 19.5C11.7239 19.5 11.5 19.2761 11.5 19L11.5 5C11.5 4.72386 11.7239 4.5 12 4.5Z" fill="#1B2024"/>
</svg>
