<svg width="24" height="24" viewBox="0 0 24 24" fill="none" xmlns="http://www.w3.org/2000/svg">
<path d="M4.53691 19L7.9547 13.201C7.74329 13.3154 7.49664 13.3954 7.21477 13.4412C6.93289 13.4869 6.65101 13.5098 6.36913 13.5098C5.12416 13.5098 4.08473 13.0932 3.25084 12.2599C2.41695 11.4267 2 10.425 2 9.2549C2 8.04248 2.41695 7.03023 3.25084 6.21814C4.08473 5.40605 5.12416 5 6.36913 5C7.57064 5 8.5992 5.40605 9.45482 6.21814C10.3104 7.03023 10.7383 8.0385 10.7383 9.24296C10.7383 9.66269 10.6854 10.0556 10.5797 10.4216C10.474 10.7876 10.3272 11.1307 10.1393 11.451L5.66443 19H4.53691ZM15.7987 19L19.2164 13.201C19.005 13.3154 18.7584 13.3954 18.4765 13.4412C18.1946 13.4869 17.9128 13.5098 17.6309 13.5098C16.3859 13.5098 15.3465 13.0932 14.5126 12.2599C13.6787 11.4267 13.2617 10.425 13.2617 9.2549C13.2617 8.01961 13.6787 7.00163 14.5126 6.20098C15.3465 5.40033 16.3859 5 17.6309 5C18.8324 5 19.8609 5.40605 20.7166 6.21814C21.5722 7.03023 22 8.0385 22 9.24296C22 9.66269 21.9471 10.0556 21.8414 10.4216C21.7357 10.7876 21.5889 11.1307 21.401 11.451L16.9262 19H15.7987ZM6.36913 12.549C7.30872 12.549 8.10738 12.2288 8.7651 11.5882C9.42282 10.9477 9.75168 10.1699 9.75168 9.2549C9.75168 8.33987 9.42282 7.56209 8.7651 6.92157C8.10738 6.28105 7.30872 5.96078 6.36913 5.96078C5.42953 5.96078 4.63087 6.28105 3.97315 6.92157C3.31544 7.56209 2.98658 8.33987 2.98658 9.2549C2.98658 10.1699 3.31544 10.9477 3.97315 11.5882C4.63087 12.2288 5.42953 12.549 6.36913 12.549ZM17.6309 12.549C18.5705 12.549 19.3691 12.2288 20.0268 11.5882C20.6846 10.9477 21.0134 10.1699 21.0134 9.2549C21.0134 8.33987 20.6846 7.56209 20.0268 6.92157C19.3691 6.28105 18.5705 5.96078 17.6309 5.96078C16.6913 5.96078 15.8926 6.28105 15.2349 6.92157C14.5772 7.56209 14.2483 8.33987 14.2483 9.2549C14.2483 10.1699 14.5772 10.9477 15.2349 11.5882C15.8926 12.2288 16.6913 12.549 17.6309 12.549Z" fill="white"/>
</svg>
