<svg width="24" height="24" viewBox="0 0 24 24" fill="none" xmlns="http://www.w3.org/2000/svg">
<path fill-rule="evenodd" clip-rule="evenodd" d="M12 22.2C17.6333 22.2 22.2 17.6333 22.2 12C22.2 6.3667 17.6333 1.8 12 1.8C6.3667 1.8 1.8 6.3667 1.8 12C1.8 17.6333 6.3667 22.2 12 22.2ZM12 23.2C18.1856 23.2 23.2 18.1856 23.2 12C23.2 5.81441 18.1856 0.800003 12 0.800003C5.81441 0.800003 0.800003 5.81441 0.800003 12C0.800003 18.1856 5.81441 23.2 12 23.2Z" fill="white"/>
<path fill-rule="evenodd" clip-rule="evenodd" d="M12 0.800003L11.3882 3.64916C10.5555 7.52663 7.52663 10.5555 3.64915 11.3882L0.800003 12L3.64916 12.6118C7.52663 13.4445 10.5555 16.4734 11.3882 20.3509L12 23.2L12.6118 20.3509C13.4445 16.4734 16.4734 13.4445 20.3509 12.6118L23.2 12L20.3509 11.3882C16.4734 10.5555 13.4445 7.52663 12.6118 3.64915L12 0.800003ZM12 5.16755C10.8895 8.36827 8.36827 10.8895 5.16755 12C8.36827 13.1106 10.8895 15.6317 12 18.8325C13.1106 15.6317 15.6317 13.1106 18.8325 12C15.6317 10.8895 13.1106 8.36827 12 5.16755Z" fill="white"/>
</svg>
