<svg width="24" height="24" viewBox="0 0 24 24" fill="none" xmlns="http://www.w3.org/2000/svg">
<path fill-rule="evenodd" clip-rule="evenodd" d="M12.0502 1.29289L12.4037 1.64645C14.3793 3.62205 15.0472 6.41017 14.4073 8.93513L17.0499 6.29259L22.8074 12.0502L22.4539 12.4037C20.4783 14.3793 17.6902 15.0472 15.1652 14.4073L17.8077 17.0499L12.0502 22.8074L11.6966 22.4539C9.72101 20.4783 9.05314 17.6901 9.69302 15.1652L7.05046 17.8077L1.29289 12.0502L1.64645 11.6966C3.62205 9.721 6.41018 9.05314 8.93515 9.69301L6.2926 7.05046L12.0502 1.29289ZM11.0037 11.7615C8.53436 9.9284 5.08164 10.029 2.72021 12.0633L7.05046 16.3935L11.0037 12.4403C11.1003 12.3128 11.2015 12.1877 11.3072 12.0651L11.0037 11.7615ZM11.7616 13.0966C9.92841 15.566 10.029 19.0187 12.0633 21.3801L16.3935 17.0499L12.4404 13.0967C12.3129 13.0001 12.1877 12.8989 12.0651 12.7931L11.7616 13.0966ZM13.0967 12.3388C15.566 14.1719 19.0187 14.0713 21.3801 12.0371L17.0499 7.70681L13.0967 11.6599C13.0001 11.7875 12.8989 11.9126 12.7931 12.0353L13.0967 12.3388ZM12.0353 11.3072L12.3388 11.0036C14.1719 8.5343 14.0713 5.08162 12.0371 2.72021L7.70681 7.05046L11.66 11.0037C11.7875 11.1003 11.9127 11.2015 12.0353 11.3072Z" fill="white"/>
</svg>
